<?xml version="1.0" standalone="no"?>
<!DOCTYPE svg PUBLIC "-//W3C//DTD SVG 20010904//EN"
 "http://www.w3.org/TR/2001/REC-SVG-20010904/DTD/svg10.dtd">
<svg version="1.0" xmlns="http://www.w3.org/2000/svg"
 width="50.000000pt" height="50.000000pt" viewBox="0 0 50.000000 50.000000"
 preserveAspectRatio="xMidYMid meet">
<metadata>
Created by potrace 1.16, written by Peter Selinger 2001-2019
</metadata>
<g transform="translate(0.000000,50.000000) scale(0.009766,-0.009766)"
fill="#000000" stroke="none">
<path d="M4453 4826 c-189 -46 -357 -213 -402 -400 -21 -86 -15 -215 14 -301
32 -97 63 -145 141 -222 209 -206 545 -203 755 7 111 111 159 229 159 388 0
159 -49 274 -166 389 -130 128 -325 181 -501 139z m241 -237 c71 -26 139 -92
174 -167 21 -45 26 -72 26 -127 -1 -38 -6 -83 -13 -99 l-12 -30 -210 210 -209
209 32 12 c53 19 151 15 212 -8z m-16 -596 c-53 -19 -151 -15 -212 8 -71 26
-139 92 -174 167 -21 45 -26 72 -26 127 1 39 6 83 13 99 l12 30 210 -210 209
-209 -32 -12z"/>
<path d="M1420 4764 c-276 -74 -385 -419 -204 -641 82 -100 193 -147 333 -141
71 2 97 8 151 34 119 57 200 166 222 298 47 286 -220 526 -502 450z"/>
<path d="M3277 4130 c-111 -19 -230 -107 -281 -208 -124 -244 25 -539 292
-582 175 -29 355 67 430 228 24 51 27 69 27 167 0 98 -3 116 -27 167 -55 119
-173 207 -303 228 -67 11 -70 11 -138 0z"/>
<path d="M1033 4000 c-46 -11 -117 -55 -148 -92 -16 -18 -70 -121 -122 -228
-230 -475 -235 -487 -243 -558 -4 -37 -26 -123 -49 -192 l-41 -125 -191 -230
c-193 -231 -229 -285 -229 -340 0 -37 30 -104 58 -128 26 -24 88 -46 128 -47
67 -1 105 35 328 305 193 232 218 266 237 325 12 36 25 69 29 73 4 4 53 -42
110 -103 l102 -110 -17 -261 c-20 -295 -17 -317 40 -368 92 -81 220 -58 272
49 19 40 24 82 43 358 21 309 21 313 2 355 -11 23 -74 101 -140 172 -67 72
-121 133 -122 137 0 9 229 490 239 500 4 4 47 -20 96 -53 110 -73 140 -90 184
-100 23 -5 113 5 285 32 138 22 259 42 269 45 27 8 76 53 92 85 22 42 19 124
-6 169 -21 37 -71 72 -119 83 -14 4 -121 -8 -238 -27 l-212 -32 -215 142
c-255 170 -310 191 -422 164z"/>
<path d="M2883 3330 c-80 -17 -148 -65 -187 -134 -14 -22 -80 -201 -148 -396
l-123 -355 0 -95 c0 -92 1 -97 36 -150 42 -65 181 -199 372 -358 l137 -115 0
-214 c0 -236 5 -260 59 -306 89 -75 217 -50 269 53 21 43 22 54 22 314 0 325
4 313 -130 430 -50 43 -89 80 -88 81 4 3 301 -24 314 -29 6 -2 80 -112 163
-244 84 -132 164 -253 179 -267 35 -36 62 -45 126 -45 111 0 184 95 162 212
-3 18 -93 170 -200 338 -178 280 -197 307 -237 327 -37 19 -83 26 -304 44
-143 12 -261 23 -262 23 -3 2 133 396 139 401 3 3 72 -31 154 -77 l149 -83
213 -3 c201 -3 215 -2 258 18 65 32 98 92 92 169 -5 69 -32 113 -88 141 -34
18 -60 20 -203 20 l-164 0 -229 126 c-126 70 -254 137 -285 150 -66 27 -138
36 -196 24z"/>
<path d="M1772 3219 c-61 -18 -79 -102 -32 -149 19 -19 35 -20 348 -20 316 0
329 1 350 20 52 48 32 131 -35 149 -47 14 -585 13 -631 0z"/>
<path d="M1564 2843 c-62 -12 -88 -102 -43 -149 l22 -24 329 0 329 0 24 25
c33 32 33 84 1 122 l-24 28 -309 1 c-169 1 -318 0 -329 -3z"/>
<path d="M50 1733 c-40 -28 -49 -45 -50 -96 0 -43 5 -54 34 -83 l34 -34 931 0
931 0 0 -571 c0 -637 -2 -622 67 -654 69 -33 143 1 163 74 11 40 14 1237 4
1290 -4 18 -20 45 -36 62 l-30 29 -1012 0 c-937 0 -1013 -1 -1036 -17z"/>
<path d="M3056 797 c-13 -13 -26 -42 -30 -65 -17 -106 -178 -190 -407 -211
-73 -7 -94 -13 -114 -31 -35 -33 -34 -88 3 -125 27 -27 28 -28 127 -22 175 10
355 72 443 152 l41 36 53 -43 c62 -51 146 -90 255 -120 114 -31 382 -31 497 0
98 27 209 80 261 125 l40 34 40 -34 c92 -80 269 -140 440 -150 91 -5 102 -4
126 16 32 25 41 66 24 107 -16 39 -48 51 -151 58 -196 13 -369 108 -389 213
-10 56 -40 83 -90 83 -51 0 -80 -27 -91 -84 -35 -194 -491 -284 -769 -152 -89
42 -131 84 -150 149 -21 70 -39 87 -92 87 -32 0 -50 -6 -67 -23z"/>
</g>
</svg>
