<?xml version="1.0" standalone="no"?>
<!DOCTYPE svg PUBLIC "-//W3C//DTD SVG 20010904//EN"
 "http://www.w3.org/TR/2001/REC-SVG-20010904/DTD/svg10.dtd">
<svg version="1.0" xmlns="http://www.w3.org/2000/svg"
 width="50.000000pt" height="50.000000pt" viewBox="0 0 50.000000 50.000000"
 preserveAspectRatio="xMidYMid meet">
<metadata>
Created by potrace 1.16, written by Peter Selinger 2001-2019
</metadata>
<g transform="translate(0.000000,50.000000) scale(0.005000,-0.005000)"
fill="#000000" stroke="none">
<path d="M4609 7304 c-23 -25 -24 -30 -26 -202 -1 -102 3 -191 9 -210 19 -61
99 -75 139 -24 19 25 20 38 17 225 -3 195 -3 199 -27 218 -34 27 -82 25 -112
-7z"/>
<path d="M4063 7162 c-13 -2 -32 -15 -43 -29 -38 -48 -29 -68 89 -186 95 -97
112 -110 141 -109 45 1 80 36 80 80 0 31 -12 47 -96 133 -96 97 -128 118 -171
111z"/>
<path d="M5234 7162 c-33 -5 -234 -214 -234 -243 0 -32 26 -68 56 -80 40 -15
82 11 182 113 80 83 92 100 92 130 0 50 -46 89 -96 80z"/>
<path d="M3730 6664 c-58 -24 -78 -90 -41 -135 19 -24 23 -24 219 -27 196 -3
200 -3 225 20 40 36 38 106 -4 129 -22 12 -373 23 -399 13z"/>
<path d="M4614 6659 c-106 -14 -202 -90 -253 -198 l-26 -56 0 -1002 c0 -552
-2 -1003 -5 -1003 -3 0 -56 88 -119 196 -62 107 -127 209 -145 226 -17 17 -59
45 -94 61 -207 97 -447 -45 -469 -278 -7 -82 -3 -94 301 -790 283 -646 308
-695 442 -829 160 -160 357 -262 578 -301 124 -21 656 -21 779 0 348 61 639
285 793 609 103 218 106 254 102 1186 l-3 765 -33 67 c-37 76 -82 120 -162
157 -74 35 -190 36 -264 3 -27 -12 -50 -22 -51 -22 -2 0 -15 20 -29 44 -36 62
-117 132 -177 151 -59 20 -147 22 -204 7 -34 -10 -99 -47 -151 -86 -8 -7 -25
2 -54 27 -81 69 -227 91 -323 49 l-46 -20 -3 396 -3 397 -28 57 c-66 135 -204
208 -353 187z m144 -186 c15 -11 37 -35 50 -53 22 -33 22 -37 23 -374 0 -188
1 -601 2 -919 l2 -579 28 -24 c38 -32 72 -31 108 5 l29 29 0 407 c0 453 0 451
68 503 30 23 45 27 98 27 68 0 98 -15 138 -69 20 -26 21 -43 26 -453 l5 -425
28 -24 c38 -32 72 -31 108 5 l29 29 0 407 c0 453 0 451 68 503 30 23 45 27 98
27 70 0 102 -17 142 -75 25 -37 24 -17 26 -573 l1 -299 28 -24 c36 -30 68 -31
104 0 l28 24 5 340 c5 326 6 342 26 369 11 15 36 39 55 51 28 20 44 23 94 20
69 -4 103 -24 134 -79 20 -35 20 -50 21 -820 1 -688 -1 -794 -15 -864 -61
-300 -282 -563 -564 -669 -151 -58 -179 -61 -541 -61 -319 0 -339 1 -420 23
-106 29 -233 88 -313 146 -76 54 -182 163 -230 236 -20 30 -156 330 -303 665
-288 656 -297 682 -260 753 51 98 197 122 268 44 13 -15 107 -169 207 -342
101 -173 194 -325 208 -337 31 -30 65 -29 100 1 l28 24 5 1174 5 1175 27 35
c15 19 42 42 60 52 44 22 129 17 166 -11z"/>
<path d="M5235 6663 c-60 -15 -84 -87 -46 -134 19 -24 23 -24 216 -27 168 -3
200 -1 221 13 60 39 47 125 -23 144 -37 11 -328 13 -368 4z"/>
</g>
</svg>
