<?xml version="1.0" standalone="no"?>
<!DOCTYPE svg PUBLIC "-//W3C//DTD SVG 20010904//EN"
 "http://www.w3.org/TR/2001/REC-SVG-20010904/DTD/svg10.dtd">
<svg version="1.0" xmlns="http://www.w3.org/2000/svg"
 width="50.000000pt" height="50.000000pt" viewBox="0 0 50.000000 50.000000"
 preserveAspectRatio="xMidYMid meet">
<metadata>
Created by potrace 1.16, written by Peter Selinger 2001-2019
</metadata>
<g transform="translate(0.000000,50.000000) scale(0.005000,-0.005000)"
fill="#000000" stroke="none">
<path d="M5946 8431 c-52 -34 -55 -51 -56 -247 0 -133 -3 -184 -12 -191 -7 -5
-42 -20 -78 -33 -36 -12 -87 -34 -114 -47 l-48 -25 -132 130 c-78 78 -142 133
-159 137 -66 17 -81 6 -329 -242 -130 -131 -241 -248 -247 -260 -14 -28 -14
-68 0 -96 6 -12 67 -78 135 -147 l125 -126 -34 -74 c-19 -41 -42 -99 -51 -127
l-18 -53 -176 0 c-148 0 -183 -3 -212 -18 -44 -21 -70 -72 -70 -135 0 -39 -6
-55 -31 -85 -18 -22 -84 -161 -164 -347 -74 -170 -137 -316 -142 -324 -5 -7
-44 -24 -88 -38 l-79 -25 -19 23 c-113 143 -239 214 -399 226 -191 14 -383
-79 -480 -232 -46 -73 -493 -1071 -539 -1202 -39 -114 -32 -261 19 -375 l19
-43 -116 -415 -117 -415 -129 -250 c-71 -137 -141 -272 -154 -300 -18 -34 -27
-70 -29 -117 -4 -58 0 -76 22 -123 45 -90 131 -145 232 -148 30 -1 54 -2 54
-4 0 -1 -72 -37 -160 -79 -132 -64 -162 -82 -167 -102 -8 -32 8 -56 38 -60 16
-2 288 125 778 364 l753 366 92 2 c66 1 101 6 127 19 47 23 104 80 120 118 9
23 31 40 90 70 43 21 81 39 84 39 4 0 -59 -128 -139 -285 -146 -284 -146 -285
-146 -353 0 -162 125 -274 289 -259 125 11 167 55 309 330 202 389 216 422
283 666 l62 223 221 107 221 107 68 -11 c37 -7 69 -14 71 -16 2 -2 -27 -143
-65 -314 -38 -170 -69 -332 -69 -360 0 -60 29 -127 73 -173 122 -128 343 -98
421 57 34 66 206 851 206 937 0 47 -7 84 -26 130 -14 36 -24 67 -22 69 1 2
482 236 1068 520 586 285 1071 522 1078 528 22 18 10 70 -18 80 -21 8 -58 -7
-225 -87 l-200 -97 151 153 c214 216 215 218 22 414 l-129 132 22 43 c12 24
37 80 54 124 l31 80 170 5 c174 5 191 9 231 52 50 53 53 76 53 398 0 331 -4
356 -58 384 -22 11 -73 16 -212 18 l-184 3 -36 95 c-20 52 -43 109 -52 126
l-17 30 115 115 c63 63 123 128 134 145 20 31 25 83 12 116 -4 9 -114 124
-244 257 -248 251 -266 265 -330 246 -12 -4 -82 -66 -155 -138 l-132 -130 -69
31 c-38 18 -93 40 -123 51 l-54 18 -5 189 c-5 206 -9 222 -63 254 -30 19 -53
20 -367 20 -314 0 -337 -1 -364 -19z m682 -93 c8 -8 12 -65 12 -190 0 -234 -2
-229 140 -281 36 -14 89 -36 118 -51 31 -16 68 -26 93 -26 41 0 47 5 181 137
l138 137 225 -224 c124 -124 225 -229 225 -234 0 -6 -58 -69 -129 -141 -159
-161 -161 -164 -103 -292 21 -48 47 -111 56 -139 9 -28 30 -64 47 -80 l30 -29
192 -5 192 -5 3 -280 c1 -154 0 -290 -3 -303 -3 -12 -14 -31 -25 -42 -18 -18
-34 -20 -182 -20 -206 0 -212 -3 -257 -119 -17 -45 -45 -111 -61 -146 -51
-110 -45 -124 118 -288 l127 -127 -225 -225 c-124 -124 -229 -225 -235 -225
-6 0 -66 56 -135 125 -139 139 -165 154 -226 131 -103 -38 -255 -105 -270
-117 -37 -30 -44 -73 -44 -254 l0 -175 -319 0 c-282 0 -320 2 -325 16 -3 9 -6
96 -6 195 l0 179 -27 28 c-16 17 -60 41 -103 57 -41 15 -78 31 -82 34 -5 4 81
35 190 70 323 103 324 103 404 285 l53 119 83 22 c267 71 476 278 549 545 28
103 25 312 -5 410 -43 136 -97 226 -197 325 -101 101 -181 152 -300 192 -73
25 -94 27 -235 28 -149 0 -158 -1 -243 -31 -48 -18 -113 -47 -143 -65 -67 -40
-189 -151 -228 -207 -26 -37 -30 -40 -67 -35 -21 3 -67 0 -101 -7 -142 -27
-253 -111 -315 -238 -37 -75 -38 -78 -38 -192 0 -114 1 -117 38 -192 80 -162
260 -264 432 -244 50 6 50 6 79 -35 16 -22 62 -68 102 -102 41 -33 73 -62 71
-64 -2 -2 -37 -15 -78 -28 l-74 -26 -25 33 c-137 184 -380 266 -590 199 -35
-11 -68 -17 -71 -13 -4 4 -14 30 -23 59 -11 32 -29 62 -47 78 -28 23 -38 25
-130 25 -54 0 -99 4 -99 9 0 5 27 72 60 149 52 123 60 149 60 204 -1 145 -103
247 -247 248 -45 0 -63 4 -63 13 0 33 23 37 207 37 l183 0 29 28 c19 17 46 69
76 142 25 63 51 127 58 142 22 52 1 88 -136 228 -104 107 -126 134 -118 148 5
9 107 114 225 232 l216 215 127 -127 c71 -69 138 -131 150 -137 36 -18 80 -13
141 18 31 15 86 39 122 52 136 48 140 57 140 292 0 96 3 177 7 180 3 4 144 7
313 7 225 0 309 -3 318 -12z m-118 -1106 c315 -102 511 -436 446 -762 -27
-135 -83 -239 -180 -336 -88 -88 -144 -125 -244 -161 -59 -21 -64 -22 -59 -6
2 10 46 113 96 230 81 188 91 218 91 271 0 160 -148 278 -304 243 -63 -14
-128 -57 -156 -104 -11 -18 -70 -149 -131 -292 -61 -143 -114 -264 -118 -268
-8 -8 -151 118 -151 133 0 4 19 19 43 33 62 36 124 108 160 185 30 63 32 74
32 182 0 108 -2 119 -31 180 -40 83 -102 153 -171 192 -29 16 -53 32 -53 35 0
3 17 26 37 51 73 89 215 175 341 207 83 21 267 14 352 -13z m-787 -338 c76
-27 143 -89 188 -174 20 -38 24 -59 24 -140 0 -85 -3 -101 -28 -148 -131 -250
-483 -247 -608 5 -20 40 -24 63 -24 143 0 112 20 163 91 234 95 95 229 125
357 80z m-1015 -134 c43 -27 72 -76 72 -125 0 -55 -319 -800 -358 -838 -21
-20 -89 -46 -267 -103 -132 -42 -247 -83 -256 -92 -31 -33 -449 -979 -449
-1017 0 -13 8 -29 19 -34 10 -6 100 -24 201 -41 105 -18 198 -39 220 -50 72
-37 120 -127 120 -224 0 -66 -174 -848 -197 -888 -27 -46 -66 -70 -120 -75
-62 -6 -112 14 -146 58 -46 61 -45 77 37 448 42 188 76 353 76 366 0 13 -8 29
-18 34 -28 15 -624 113 -649 106 -12 -3 -26 -13 -31 -23 -5 -9 -57 -189 -116
-400 -117 -422 -102 -384 -324 -811 -88 -169 -113 -209 -145 -232 -74 -54
-173 -35 -231 44 -16 21 -21 43 -21 85 1 54 10 74 153 347 l151 290 123 438
c114 410 121 440 109 470 -57 137 -70 244 -41 332 16 50 275 641 418 955 91
198 115 243 159 290 190 205 507 180 668 -54 22 -32 47 -62 56 -66 14 -8 244
57 277 78 7 5 76 157 154 338 77 181 148 340 157 353 39 60 135 80 199 41z
m1782 -169 c41 -29 70 -80 70 -122 0 -55 -329 -816 -365 -844 -14 -11 -137
-56 -273 -100 l-247 -81 -74 -159 c-159 -345 -371 -839 -371 -866 0 -15 4 -31
10 -34 5 -3 97 -21 204 -40 217 -38 247 -50 298 -126 33 -49 48 -98 48 -154 0
-22 -42 -228 -94 -458 -91 -409 -93 -418 -126 -452 -58 -60 -135 -69 -207 -25
-37 22 -73 86 -73 127 0 15 34 181 75 367 41 187 75 347 75 357 0 9 -6 22 -14
28 -15 12 -578 111 -631 111 -16 0 -36 -4 -43 -9 -8 -5 -33 -78 -57 -162 -24
-85 -73 -262 -110 -394 l-67 -240 -151 -300 c-165 -325 -201 -377 -269 -390
-53 -10 -102 1 -138 32 -66 55 -78 135 -34 218 14 27 83 161 154 299 l129 251
122 437 122 437 -27 60 c-38 86 -51 168 -38 247 15 91 484 1160 553 1261 96
139 296 207 465 158 101 -29 182 -92 253 -197 22 -33 39 -48 54 -48 27 0 255
74 268 87 5 5 74 159 153 342 92 211 155 344 172 362 48 51 129 59 184 20z
m-1542 -483 l22 -62 -54 -56 c-29 -30 -65 -73 -78 -95 -41 -67 -480 -1048
-531 -1185 -15 -41 -20 -81 -21 -160 -1 -92 3 -115 28 -186 l28 -81 -86 -310
c-47 -171 -93 -334 -102 -362 -15 -51 -15 -51 -101 -91 -47 -22 -88 -39 -90
-37 -2 2 31 159 73 348 69 315 75 351 71 429 -5 103 -28 161 -92 229 -60 65
-112 85 -289 115 -82 14 -150 26 -151 28 -5 6 380 872 395 891 3 4 104 39 224
77 228 72 291 101 325 148 16 23 107 223 176 390 l14 32 108 0 108 0 23 -62z
m2162 -923 c72 -73 111 -118 105 -124 -6 -5 -117 -61 -247 -124 l-238 -116 0
172 c0 95 3 181 6 192 3 14 25 28 67 43 34 12 85 33 112 46 28 14 57 25 65 25
9 1 67 -51 130 -114z m-1308 49 l78 -29 0 -175 c0 -147 3 -181 18 -209 36 -71
33 -71 366 -71 173 -1 295 -5 290 -10 -5 -5 -184 -94 -399 -198 l-390 -189
-52 29 c-40 23 -85 35 -205 55 -84 14 -154 26 -156 28 -1 1 70 166 159 366 89
200 169 381 178 401 9 21 21 36 26 34 6 -2 45 -16 87 -32z m-2499 -1094 c133
-23 242 -42 244 -44 1 -1 -29 -145 -67 -318 -39 -174 -70 -332 -70 -350 0 -48
17 -100 46 -143 14 -21 22 -41 17 -45 -10 -9 -1000 -490 -1009 -490 -3 0 7 15
23 33 16 18 100 171 187 340 l158 308 94 337 c52 185 99 354 105 375 5 20 14
37 20 37 6 0 119 -18 252 -40z"/>
<path d="M3687 7160 c-195 -69 -305 -233 -295 -439 3 -71 10 -99 35 -154 105
-224 366 -319 586 -214 176 83 278 272 247 457 -25 148 -114 267 -245 330 -62
30 -81 34 -170 37 -82 3 -111 0 -158 -17z m257 -101 c69 -25 149 -97 182 -162
85 -166 15 -371 -155 -454 -48 -24 -68 -28 -141 -28 -76 0 -92 4 -152 33 -224
110 -254 406 -56 565 81 65 219 85 322 46z"/>
<path d="M1794 2197 c-2 -7 -3 -67 -2 -133 l3 -119 135 0 135 0 3 53 3 52
2929 0 2929 0 3 -52 3 -53 135 0 135 0 3 110 c4 168 16 156 -141 153 l-132 -3
-3 -52 -3 -53 -2929 0 -2929 0 -3 53 -3 52 -133 3 c-103 2 -134 0 -138 -11z
m224 -119 l3 -88 -91 0 -90 0 0 83 c0 46 3 87 7 91 4 4 43 5 88 4 l80 -3 3
-87z m6126 86 c13 -5 16 -23 16 -90 l0 -84 -90 0 -90 0 0 83 c0 46 3 87 7 90
8 9 136 9 157 1z"/>
<path d="M5393 1703 c-12 -2 -36 -17 -53 -33 -24 -22 -30 -36 -30 -68 0 -52
30 -89 95 -118 29 -12 59 -30 68 -39 24 -23 21 -71 -4 -96 -18 -18 -30 -20
-73 -16 -28 2 -58 7 -67 11 -20 9 -35 -22 -19 -38 5 -5 40 -12 77 -14 81 -5
124 14 148 65 31 65 1 120 -88 163 -67 33 -87 52 -87 85 0 44 57 70 117 53 34
-9 52 -1 53 24 0 18 -86 31 -137 21z"/>
<path d="M6357 1696 c-81 -30 -126 -101 -127 -199 0 -129 69 -207 185 -207
124 0 193 87 183 230 -6 79 -31 128 -82 160 -44 27 -111 34 -159 16z m141 -70
c67 -65 65 -195 -3 -263 -27 -27 -40 -33 -78 -33 -93 0 -153 99 -128 211 12
54 38 89 82 112 44 23 85 14 127 -27z"/>
<path d="M2790 1495 l0 -205 115 0 c108 0 115 1 115 20 0 17 -8 19 -87 22
l-88 3 -3 73 -3 72 81 0 c79 0 80 0 80 25 0 25 -1 25 -80 25 l-81 0 3 63 3 62
83 3 c74 3 82 5 82 22 0 19 -7 20 -110 20 l-110 0 0 -205z"/>
<path d="M3090 1495 l0 -207 98 4 c122 5 169 27 209 95 22 38 27 59 27 112 1
83 -23 133 -77 169 -36 24 -51 27 -149 30 l-108 4 0 -207z m209 147 c47 -25
71 -74 71 -142 0 -107 -66 -170 -177 -170 l-53 0 0 165 0 165 63 0 c41 0 74
-6 96 -18z"/>
<path d="M3500 1495 l0 -205 25 0 25 0 0 205 0 205 -25 0 -25 0 0 -205z"/>
<path d="M3600 1680 c0 -18 7 -20 60 -20 l60 0 0 -185 0 -185 25 0 25 0 2 183
3 182 63 3 c54 3 62 6 62 22 0 19 -8 20 -150 20 -143 0 -150 -1 -150 -20z"/>
<path d="M4001 1678 c-18 -48 -131 -380 -131 -384 0 -3 12 -4 27 -2 24 3 30
11 47 66 l20 63 75 -3 75 -3 20 -62 c18 -58 22 -63 49 -63 25 0 27 3 21 23 -4
12 -35 103 -69 202 -62 179 -63 180 -94 183 -25 3 -33 -1 -40 -20z"/>
<path d="M4278 1694 c-5 -4 -8 -97 -8 -206 l0 -198 75 0 c86 0 132 16 163 55
38 49 21 129 -33 153 l-26 12 30 26 c42 35 44 98 5 135 -22 21 -37 24 -112 27
-48 2 -90 0 -94 -4z m164 -51 c24 -21 23 -68 -2 -93 -15 -15 -33 -20 -70 -20
l-50 0 0 65 0 65 52 0 c34 0 58 -6 70 -17z m-17 -168 c93 -38 48 -151 -57
-143 l-43 3 -3 64 c-2 35 -1 70 2 77 7 18 58 18 101 -1z"/>
<path d="M4600 1495 l0 -205 115 0 c108 0 115 1 115 20 0 17 -8 19 -87 22
l-88 3 -3 183 -2 182 -25 0 -25 0 0 -205z"/>
<path d="M4890 1495 l0 -205 115 0 c108 0 115 1 115 20 0 17 -8 19 -87 22
l-88 3 -3 73 -3 72 81 0 c79 0 80 0 80 25 0 25 -1 25 -80 25 l-81 0 3 63 3 62
83 3 c74 3 82 5 82 22 0 19 -7 20 -110 20 l-110 0 0 -205z"/>
<path d="M5570 1680 c0 -18 7 -20 65 -20 l65 0 0 -185 0 -185 25 0 25 0 0 185
0 185 65 0 c58 0 65 2 65 20 0 19 -7 20 -155 20 -148 0 -155 -1 -155 -20z"/>
<path d="M5927 1693 c-4 -3 -7 -96 -7 -205 l0 -198 25 0 c24 0 24 2 27 88 l3
87 36 3 c55 5 83 -24 104 -108 16 -66 19 -70 45 -70 l28 0 -24 83 c-13 46 -31
88 -42 97 -18 14 -17 16 15 46 27 26 33 39 33 73 0 84 -38 111 -158 111 -43 0
-82 -3 -85 -7z m173 -53 c12 -12 20 -33 20 -54 0 -48 -37 -76 -101 -76 l-49 0
0 68 c0 38 3 72 7 75 3 4 28 7 55 7 35 0 54 -6 68 -20z"/>
<path d="M6670 1495 l0 -205 25 0 c25 0 25 1 25 78 0 69 3 81 23 100 l24 22
66 -100 c60 -90 70 -100 97 -100 l30 0 -79 119 -80 119 69 80 c39 45 70 83 70
86 0 3 -13 6 -29 6 -24 0 -40 -14 -102 -94 -41 -52 -77 -95 -81 -95 -5 -1 -8
42 -8 94 0 95 0 95 -25 95 l-25 0 0 -205z"/>
<path d="M7000 1495 l0 -205 115 0 c113 0 115 0 115 23 0 21 -3 22 -87 22
l-88 0 -3 73 -3 72 81 0 c79 0 80 0 80 25 0 25 -1 25 -80 25 l-81 0 3 63 3 62
83 3 c74 3 82 5 82 22 0 19 -7 20 -110 20 l-110 0 0 -205z"/>
</g>
</svg>
